<?xml version="1.0" encoding="UTF-8" standalone="no"?>
<!DOCTYPE svg PUBLIC "-//W3C//DTD SVG 1.1//EN" "http://www.w3.org/Graphics/SVG/1.1/DTD/svg11.dtd">
<svg width="100%" height="100%" viewBox="0 0 1680 1420" version="1.1" xmlns="http://www.w3.org/2000/svg" xmlns:xlink="http://www.w3.org/1999/xlink" xml:space="preserve" xmlns:serif="http://www.serif.com/" style="fill-rule:evenodd;clip-rule:evenodd;stroke-linejoin:round;stroke-miterlimit:2;">
    <g transform="matrix(0.1,0,0,-0.1,-160,1710)">
        <path d="M13830,16945C13816,16943 13742,16936 13665,16930C12951,16871 12237,16619 11643,16214C11196,15910 10864,15587 10508,15110C10383,14943 10140,14529 10140,14483C10140,14454 10174,14427 10199,14435C10211,14438 10232,14458 10247,14478C10336,14597 10541,14829 10696,14984C10893,15180 11029,15299 11220,15440C11267,15475 11328,15521 11356,15542C11384,15563 11411,15580 11415,15580C11420,15580 11433,15589 11444,15599C11456,15610 11519,15651 11585,15690C11846,15844 12239,16021 12470,16089C12511,16102 12556,16115 12570,16120C12629,16141 12854,16193 12975,16214C13247,16262 13367,16272 13663,16271C13993,16270 14197,16245 14480,16170C14521,16160 14566,16148 14580,16144C14797,16088 15198,15920 15380,15809C15394,15801 15446,15770 15495,15740C15737,15597 15969,15412 16205,15175C16528,14852 16751,14534 16934,14135C17153,13658 17246,13131 17211,12563C17188,12171 17130,11866 17005,11470C16884,11088 16690,10667 16466,10302C16422,10229 16376,10155 16365,10137C16354,10120 16308,10051 16261,9985C16215,9919 16167,9852 16156,9835C16099,9754 15923,9534 15745,9323C15613,9167 15037,8591 14836,8415C14610,8217 14423,8058 14245,7915C14055,7762 13942,7672 13919,7655C13904,7644 13817,7577 13725,7506C13634,7436 13432,7283 13277,7167C12676,6719 12441,6539 12225,6364C12181,6329 12120,6281 12090,6258C12060,6235 12005,6191 11969,6161C11933,6130 11857,6067 11800,6020C11743,5973 11661,5903 11616,5864C11571,5825 11496,5760 11449,5719C11401,5678 11309,5598 11244,5541C11095,5410 10369,4685 10269,4567C10228,4519 10160,4438 10117,4387C9780,3992 9538,3659 9345,3323C9256,3169 9246,3135 9276,3092C9299,3059 9335,3048 9369,3063C9384,3069 9478,3161 9578,3265C9845,3546 10166,3849 10430,4070C10472,4106 10531,4155 10561,4181C10806,4387 11236,4719 11513,4915C11568,4954 11635,5002 11663,5022C11692,5043 11776,5101 11850,5151C11924,5202 12035,5277 12095,5319C12156,5360 12261,5431 12330,5477C12399,5522 12469,5569 12485,5580C12502,5591 12579,5642 12657,5693C12736,5743 12859,5824 12932,5871C13109,5986 13330,6129 13383,6161C13580,6283 14290,6748 14465,6871C14515,6906 14578,6950 14606,6969C14634,6989 14672,7017 14691,7031C14710,7045 14793,7106 14875,7165C14958,7225 15041,7286 15060,7302C15079,7317 15143,7367 15201,7412C15593,7717 15873,7964 16209,8299C16528,8617 16666,8773 16954,9140C17457,9780 17884,10646 18071,11404C18092,11493 18114,11581 18119,11600C18144,11698 18196,12017 18205,12130C18209,12171 18215,12230 18220,12260C18233,12340 18238,12730 18229,12905C18218,13121 18182,13418 18151,13550C18051,13981 17959,14239 17786,14575C17501,15125 17120,15591 16640,15974C16132,16381 15531,16681 14940,16823C14689,16884 14528,16911 14310,16930C14178,16941 13872,16951 13830,16945Z" style="fill:rgb(29,60,106);fill-rule:nonzero;"/>
        <path d="M5685,16895C5603,16888 5508,16878 5475,16872C5442,16866 5370,16854 5315,16845C5155,16817 4927,16758 4721,16690C4482,16612 4096,16433 3870,16296C2920,15720 2228,14842 1935,13840C1865,13599 1819,13361 1783,13045C1760,12840 1760,12315 1784,12115C1842,11616 1914,11289 2058,10870C2161,10569 2356,10154 2525,9875C2787,9441 3045,9124 3497,8680C4116,8070 4639,7687 5825,6975C5994,6873 6376,6641 6457,6591C6480,6577 6534,6543 6577,6517C6620,6491 6692,6446 6737,6417C6782,6388 6854,6343 6897,6315C7121,6173 7482,5926 7760,5725C7805,5692 7859,5653 7879,5639C7899,5625 7949,5588 7990,5556C8269,5343 8333,5294 8397,5242C8437,5211 8502,5160 8542,5128C8582,5097 8624,5063 8635,5053C8646,5043 8678,5016 8705,4995C8762,4950 8998,4752 9140,4631C9375,4431 9419,4398 9440,4405C9452,4409 9466,4422 9472,4435C9481,4454 9478,4464 9459,4492C9413,4558 9255,4757 9100,4943C9031,5026 8960,5112 8942,5134C8806,5301 8450,5678 8154,5970C7707,6410 7235,6816 6695,7225C6428,7427 6419,7434 6340,7492C5925,7796 5464,8142 5280,8289C4763,8699 4294,9153 3910,9615C3727,9835 3599,10014 3465,10235C3411,10325 3217,10701 3205,10740C3201,10754 3185,10792 3170,10825C3096,10988 2990,11310 2941,11520C2894,11720 2890,11740 2843,12050C2829,12144 2826,12234 2825,12535C2825,12975 2837,13088 2922,13440C3120,14255 3675,15017 4440,15521C4631,15648 4666,15668 4875,15770C5274,15965 5653,16073 6121,16125C6372,16153 6657,16139 6920,16085C7478,15972 8185,15640 8861,15175C9059,15038 9130,14987 9193,14936C9217,14916 9251,14895 9268,14889C9328,14868 9390,14908 9390,14968C9390,15018 9206,15233 8920,15521C8681,15761 8644,15795 8510,15906C8038,16296 7558,16577 7090,16738C6910,16800 6803,16827 6563,16869C6348,16908 5969,16919 5685,16895Z" style="fill:rgb(29,60,106);fill-rule:nonzero;"/>
        <path d="M10231,13210C10119,13169 10033,13072 10000,12949C9993,12925 9980,12880 9970,12850C9960,12820 9924,12705 9890,12595C9807,12328 9683,11927 9664,11865C9642,11796 9475,11246 9440,11130C9424,11078 9386,10952 9355,10850C9324,10748 9286,10621 9270,10567C9254,10514 9227,10426 9211,10372C9194,10319 9170,10237 9157,10190C9143,10143 9101,9999 9062,9870C9024,9741 8982,9599 8970,9555C8958,9511 8940,9453 8930,9425L8912,9375L8890,9425C8878,9453 8839,9547 8803,9635C8767,9723 8713,9854 8683,9925C8653,9997 8614,10091 8595,10135C8506,10350 8415,10566 8385,10635C8377,10652 8348,10721 8319,10790C8059,11414 8028,11472 7942,11498C7856,11524 7769,11502 7717,11441C7691,11410 7619,11267 7353,10720C7178,10359 7190,10380 7157,10380C7141,10380 7051,10375 6957,10370C6862,10364 6666,10353 6520,10345C5873,10307 5251,10264 5218,10254C5197,10248 5194,10217 5213,10202C5219,10197 5331,10185 5460,10176C6144,10128 6283,10120 6480,10110C6598,10105 6757,10096 6832,10091C6908,10085 7054,10078 7157,10075C7332,10069 7347,10070 7376,10088C7396,10101 7442,10166 7510,10276C7566,10369 7641,10490 7675,10545C7709,10600 7747,10663 7758,10685C7770,10707 7788,10736 7798,10749L7817,10772L7853,10669C7873,10612 7960,10360 8046,10110C8189,9691 8321,9312 8487,8840C8697,8243 8702,8231 8778,8173C8897,8083 9070,8094 9179,8201C9201,8222 9227,8254 9236,8272C9257,8313 9807,9966 10000,10570C10045,10710 10088,10843 10095,10865C10103,10887 10145,11018 10189,11155C10233,11293 10283,11450 10301,11505C10339,11623 10325,11645 10425,11300C10466,11160 10519,10978 10543,10895C10622,10628 10661,10497 10687,10410C10701,10363 10727,10276 10745,10215C10763,10155 10794,10051 10815,9985C10835,9919 10858,9844 10866,9818C10874,9791 10886,9749 10894,9723C10937,9577 11045,9226 11065,9168C11104,9056 11162,8999 11268,8964C11400,8922 11557,8987 11620,9110C11639,9148 11731,9433 11861,9860C11878,9918 11912,10026 11935,10100C11959,10174 11986,10261 11995,10293C12005,10324 12016,10348 12019,10344C12022,10341 12061,10268 12105,10182C12181,10034 12188,10024 12230,10002C12272,9981 12283,9980 12390,9985C12601,9996 12973,10020 13160,10035C13262,10043 13437,10057 13550,10066C13880,10092 14009,10107 14025,10120C14045,10137 14044,10183 14022,10203C14011,10214 13970,10222 13900,10229C13624,10257 12653,10330 12555,10330C12477,10330 12455,10337 12442,10363C12436,10375 12406,10457 12375,10545C12344,10633 12300,10755 12278,10815C12256,10876 12223,10967 12204,11019C12166,11125 12136,11169 12077,11208C12042,11231 12026,11235 11965,11235C11903,11235 11887,11231 11844,11205C11780,11165 11771,11148 11610,10745C11432,10300 11428,10290 11419,10290C11414,10290 11408,10302 11404,10318C11396,10356 11287,10784 11256,10903C11193,11140 11179,11193 11146,11320C11104,11483 11051,11684 11040,11725C11035,11742 11025,11782 11016,11815C11008,11849 10985,11932 10966,12000C10947,12069 10897,12251 10856,12405C10687,13035 10684,13043 10610,13124C10588,13147 10545,13179 10513,13195C10436,13234 10314,13240 10231,13210Z" style="fill:rgb(230,0,0);fill-rule:nonzero;"/>
    </g>
</svg>
